<?xml version="1.0" encoding="utf-8"?>
<!-- Generator: Adobe Illustrator 22.0.0, SVG Export Plug-In . SVG Version: 6.00 Build 0)  -->
<svg version="1.1" id="Layer_1" focusable="false" xmlns="http://www.w3.org/2000/svg" xmlns:xlink="http://www.w3.org/1999/xlink"
	 x="0px" y="0px" viewBox="0 0 448 512" style="enable-background:new 0 0 448 512;" xml:space="preserve">
<path d="M230,256c70.7,0,128-57.3,128-128S300.7,0,230,0S102,57.3,102,128S159.3,256,230,256z M325.8,288.6L278,480l-32-136l32-56
	h-96l32,56l-32,136l-47.8-191.4C62.9,292,6,350.3,6,422.4V464c0,26.5,21.5,48,48,48h352c26.5,0,48-21.5,48-48v-41.6
	C454,350.3,397.1,292,325.8,288.6L325.8,288.6z"/>
</svg>
